<svg width="128" height="36" viewBox="0 0 128 36" fill="none" xmlns="http://www.w3.org/2000/svg">
<path fill-rule="evenodd" clip-rule="evenodd" d="M18 36C27.9411 36 36 27.9411 36 18C36 8.05887 27.9411 0 18 0C8.05887 0 0 8.05887 0 18C0 27.9411 8.05887 36 18 36ZM19.5293 7.50095C19.5293 7.01453 18.9051 6.81452 18.6224 7.21033L10.094 19.1501C9.85763 19.4811 10.0942 19.9407 10.5009 19.9407H15.5293V28.3805C15.5293 28.8669 16.1534 29.0669 16.4362 28.6711L24.9645 16.7314C25.2009 16.4004 24.9644 15.9407 24.5577 15.9407H19.5293V7.50095Z" fill="#1C1C1C"/>
<path d="M51.7973 25.8009C50.8613 25.8009 49.9821 25.6371 49.1597 25.3095C48.3441 24.9752 47.6254 24.4871 47.0036 23.8453C46.3885 23.2035 45.9071 22.4179 45.5595 21.4886C45.2118 20.5526 45.038 19.4829 45.038 18.2794C45.038 16.7016 45.3322 15.3544 45.9205 14.2379C46.5089 13.1147 47.3145 12.2556 48.3374 11.6606C49.3603 11.0589 50.5136 10.758 51.7973 10.758C53.5756 10.758 54.983 11.1725 56.0193 12.0015C57.0623 12.8239 57.7676 13.9805 58.1353 15.4714L55.6683 15.8625C55.3942 15.0068 54.9462 14.3248 54.3245 13.8167C53.7027 13.3019 52.9104 13.0445 51.9477 13.0445C50.9783 13.0311 50.1726 13.2417 49.5308 13.6763C48.889 14.1109 48.4043 14.7226 48.0767 15.5115C47.7557 16.3005 47.5953 17.2231 47.5953 18.2794C47.5953 19.3358 47.7557 20.2551 48.0767 21.0373C48.3976 21.8128 48.8789 22.4179 49.5208 22.8525C50.1693 23.287 50.9783 23.511 51.9477 23.5244C52.6764 23.5311 53.3149 23.4007 53.8631 23.1333C54.4114 22.8591 54.8593 22.448 55.207 21.8997C55.5546 21.3448 55.7886 20.6529 55.909 19.8238H53.3617V17.9284H58.4763C58.4896 18.0354 58.4997 18.1925 58.5064 18.3998C58.513 18.607 58.5164 18.7307 58.5164 18.7708C58.5164 20.1347 58.2456 21.3482 57.7041 22.4112C57.1692 23.4675 56.4004 24.2966 55.3975 24.8983C54.3946 25.5 53.1946 25.8009 51.7973 25.8009ZM65.3142 25.8009C64.2311 25.8009 63.2851 25.5568 62.4761 25.0688C61.6671 24.5807 61.0387 23.9088 60.5907 23.053C60.1495 22.1906 59.9289 21.2011 59.9289 20.0846C59.9289 18.948 60.1562 17.9518 60.6108 17.0961C61.0654 16.2403 61.6972 15.5717 62.5062 15.0903C63.3152 14.609 64.2512 14.3683 65.3142 14.3683C66.404 14.3683 67.3533 14.6123 68.1623 15.1004C68.9713 15.5884 69.5997 16.2637 70.0477 17.1261C70.4956 17.9819 70.7196 18.9681 70.7196 20.0846C70.7196 21.2078 70.4923 22.2006 70.0377 23.0631C69.5897 23.9188 68.9613 24.5907 68.1523 25.0788C67.3433 25.5602 66.3973 25.8009 65.3142 25.8009ZM65.3142 23.5344C66.2769 23.5344 66.9923 23.2135 67.4603 22.5717C67.9283 21.9298 68.1623 21.1008 68.1623 20.0846C68.1623 19.0349 67.925 18.1992 67.4503 17.5774C66.9756 16.949 66.2636 16.6347 65.3142 16.6347C64.6657 16.6347 64.1308 16.7818 63.7096 17.076C63.2951 17.3635 62.9876 17.768 62.787 18.2895C62.5864 18.8043 62.4861 19.4026 62.4861 20.0846C62.4861 21.1342 62.7235 21.9733 63.1982 22.6017C63.6795 23.2235 64.3849 23.5344 65.3142 23.5344ZM78.2744 25.8009C77.2181 25.8009 76.2653 25.617 75.4163 25.2493C74.5739 24.8816 73.8785 24.3567 73.3303 23.6748C72.7888 22.9862 72.4445 22.1705 72.2974 21.2278L74.8045 20.8467C75.0185 21.7025 75.4564 22.3644 76.1183 22.8324C76.7868 23.3004 77.5557 23.5344 78.4248 23.5344C78.9396 23.5344 79.4243 23.4542 79.879 23.2937C80.3336 23.1333 80.7013 22.8993 80.9821 22.5917C81.2696 22.2842 81.4133 21.9064 81.4133 21.4585C81.4133 21.2579 81.3799 21.0741 81.3131 20.9069C81.2462 20.7331 81.1459 20.5793 81.0122 20.4456C80.8852 20.3119 80.718 20.1915 80.5108 20.0846C80.3102 19.9709 80.0762 19.874 79.8088 19.7937L76.0781 18.6906C75.7572 18.597 75.4096 18.4733 75.0352 18.3195C74.6675 18.1591 74.3165 17.9418 73.9822 17.6677C73.6546 17.3869 73.3838 17.0325 73.1699 16.6047C72.9626 16.1701 72.859 15.6352 72.859 15.0001C72.859 14.0708 73.093 13.2919 73.561 12.6634C74.0357 12.0283 74.6708 11.5536 75.4664 11.2394C76.2687 10.9251 77.1579 10.7714 78.134 10.7781C79.1235 10.7847 80.006 10.9552 80.7815 11.2895C81.5571 11.6171 82.2056 12.0951 82.7271 12.7236C83.2486 13.3521 83.6163 14.1109 83.8302 15.0001L81.2328 15.4514C81.1259 14.9433 80.9186 14.512 80.6111 14.1577C80.3102 13.7967 79.9391 13.5225 79.4979 13.3353C79.0633 13.1481 78.5987 13.0479 78.1039 13.0345C77.6225 13.0278 77.1746 13.1013 76.7601 13.2551C76.3523 13.4022 76.0213 13.6161 75.7673 13.8969C75.5199 14.1777 75.3962 14.5053 75.3962 14.8797C75.3962 15.2341 75.5032 15.5249 75.7171 15.7522C75.9311 15.9729 76.1951 16.15 76.5094 16.2837C76.8303 16.4108 77.1545 16.5177 77.4821 16.6047L80.0695 17.3267C80.4239 17.4203 80.8217 17.5473 81.2629 17.7078C81.7042 17.8683 82.1287 18.0922 82.5365 18.3797C82.9444 18.6672 83.2787 19.0449 83.5394 19.5129C83.8068 19.9809 83.9405 20.576 83.9405 21.298C83.9405 22.0468 83.7834 22.7054 83.4692 23.2737C83.1617 23.8353 82.7438 24.3033 82.2156 24.6777C81.6875 25.0521 81.0824 25.3329 80.4005 25.5201C79.7252 25.7073 79.0165 25.8009 78.2744 25.8009ZM92.4593 25.5C91.744 25.6337 91.042 25.6905 90.3533 25.6705C89.6714 25.6571 89.0597 25.5334 88.5181 25.2994C87.9766 25.0587 87.5654 24.681 87.2846 24.1662C87.0372 23.6982 86.9069 23.2202 86.8935 22.7321C86.8801 22.2441 86.8734 21.6925 86.8734 21.0774V11.6606H89.2803V20.937C89.2803 21.3716 89.2836 21.7527 89.2903 22.0803C89.3037 22.4079 89.3739 22.6753 89.5009 22.8825C89.7416 23.2837 90.126 23.5077 90.6542 23.5545C91.1824 23.6013 91.7841 23.5745 92.4593 23.4742V25.5ZM84.9078 16.5645V14.6691H92.4593V16.5645H84.9078ZM99.0235 25.8009C97.9404 25.8009 96.9944 25.5568 96.1854 25.0688C95.3765 24.5807 94.748 23.9088 94.3001 23.053C93.8588 22.1906 93.6382 21.2011 93.6382 20.0846C93.6382 18.948 93.8655 17.9518 94.3201 17.0961C94.7747 16.2403 95.4065 15.5717 96.2155 15.0903C97.0245 14.609 97.9605 14.3683 99.0235 14.3683C100.113 14.3683 101.063 14.6123 101.872 15.1004C102.681 15.5884 103.309 16.2637 103.757 17.1261C104.205 17.9819 104.429 18.9681 104.429 20.0846C104.429 21.2078 104.202 22.2006 103.747 23.0631C103.299 23.9188 102.671 24.5907 101.862 25.0788C101.053 25.5602 100.107 25.8009 99.0235 25.8009ZM99.0235 23.5344C99.9863 23.5344 100.702 23.2135 101.17 22.5717C101.638 21.9298 101.872 21.1008 101.872 20.0846C101.872 19.0349 101.634 18.1992 101.16 17.5774C100.685 16.949 99.9729 16.6347 99.0235 16.6347C98.375 16.6347 97.8401 16.7818 97.4189 17.076C97.0044 17.3635 96.6969 17.768 96.4963 18.2895C96.2957 18.8043 96.1955 19.4026 96.1955 20.0846C96.1955 21.1342 96.4328 21.9733 96.9075 22.6017C97.3889 23.2235 98.0942 23.5344 99.0235 23.5344ZM111.342 25.8009C110.225 25.8009 109.273 25.5535 108.484 25.0587C107.695 24.5573 107.09 23.8754 106.669 23.0129C106.254 22.1505 106.043 21.1743 106.037 20.0846C106.043 18.9747 106.261 17.9919 106.689 17.1362C107.123 16.2737 107.738 15.5985 108.534 15.1104C109.329 14.6157 110.276 14.3683 111.372 14.3683C112.602 14.3683 113.642 14.6792 114.491 15.3009C115.347 15.916 115.905 16.7584 116.166 17.8281L113.759 18.48C113.572 17.8983 113.261 17.4471 112.826 17.1261C112.392 16.7985 111.897 16.6347 111.342 16.6347C110.713 16.6347 110.195 16.7852 109.787 17.086C109.38 17.3802 109.079 17.788 108.885 18.3095C108.691 18.831 108.594 19.4227 108.594 20.0846C108.594 21.1142 108.825 21.9465 109.286 22.5817C109.747 23.2168 110.433 23.5344 111.342 23.5344C111.984 23.5344 112.488 23.3873 112.856 23.0931C113.231 22.799 113.511 22.3744 113.699 21.8195L116.166 22.3711C115.831 23.4742 115.246 24.3233 114.411 24.9183C113.575 25.5067 112.552 25.8009 111.342 25.8009ZM118.155 25.5L118.175 11.0589H120.622V19.884L124.584 14.6691H127.602L123.4 20.0846L127.963 25.5H124.764L120.622 20.2851V25.5H118.155Z" fill="black"/>
</svg>
