<svg width="57" height="57" viewBox="0 0 57 57" fill="none" xmlns="http://www.w3.org/2000/svg">
<path d="M53.4375 28.5C53.4375 42.2655 42.278 53.4375 28.5 53.4375C14.722 53.4375 3.5625 42.2655 3.5625 28.5C3.5625 14.722 14.722 3.5625 28.5 3.5625C42.278 3.5625 53.4375 14.722 53.4375 28.5Z" fill="#283544"/>
<path d="M40.1888 22.1897C40.0527 22.2691 36.8132 23.9444 36.8132 27.659C36.9659 31.8952 40.9013 33.3808 40.9688 33.3808C40.9013 33.4602 40.3746 35.4046 38.8146 37.4429C37.5766 39.1986 36.2025 40.9688 34.1159 40.9688C32.1311 40.9688 31.4186 39.7986 29.1284 39.7986C26.6689 39.7986 25.973 40.9688 24.09 40.9688C22.0034 40.9688 20.5275 39.1037 19.222 37.3645C17.5259 35.0881 16.0843 31.5158 16.0334 28.0858C15.9991 26.2682 16.3731 24.4816 17.3223 22.964C18.6621 20.8453 21.0541 19.4071 23.6662 19.3597C25.6677 19.2968 27.4489 20.6402 28.6704 20.6402C29.8409 20.6402 32.0293 19.3597 34.5053 19.3597C35.5741 19.3608 38.4241 19.6608 40.1888 22.1897ZM28.5011 18.9968C28.1448 17.337 29.1284 15.6771 30.0445 14.6183C31.215 13.3379 33.0637 12.4688 34.658 12.4688C34.7598 14.1286 34.1148 15.7565 32.962 16.9421C31.9275 18.2226 30.1462 19.1865 28.5011 18.9968Z" fill="white"/>
</svg>
