<svg width="60" height="60" viewBox="0 0 60 60" fill="none" xmlns="http://www.w3.org/2000/svg">
<rect x="0.5" y="0.5" width="59" height="59" rx="29.5" fill="#D15C0D" stroke="#EEEEEE"/>
<g clip-path="url(#clip0_2040_1324)">
<path d="M46 30C46 37.9862 40.1488 44.6056 32.5 45.8056V34.625H36.2281L36.9375 30H32.5V26.9987C32.5 25.7331 33.12 24.5 35.1075 24.5H37.125V20.5625C37.125 20.5625 35.2938 20.25 33.5431 20.25C29.8888 20.25 27.5 22.465 27.5 26.475V30H23.4375V34.625H27.5V45.8056C19.8513 44.6056 14 37.9862 14 30C14 21.1637 21.1637 14 30 14C38.8363 14 46 21.1637 46 30Z" fill="white"/>
<path d="M36.2281 34.625L36.9375 30H32.5V26.9987C32.5 25.7334 33.1199 24.5 35.1074 24.5H37.125V20.5625C37.125 20.5625 35.294 20.25 33.5434 20.25C29.8887 20.25 27.5 22.465 27.5 26.475V30H23.4375V34.625H27.5V45.8056C28.3146 45.9334 29.1495 46 30 46C30.8505 46 31.6854 45.9334 32.5 45.8056V34.625H36.2281Z" fill="#D15C0D"/>
</g>
<defs>
<clipPath id="clip0_2040_1324">
<rect width="32" height="32" fill="white" transform="translate(14 14)"/>
</clipPath>
</defs>
</svg>
