<svg width="60" height="60" viewBox="0 0 60 60" fill="none" xmlns="http://www.w3.org/2000/svg">
<path fill-rule="evenodd" clip-rule="evenodd" d="M40.625 48.7299V51.8749C40.625 52.3722 40.4275 52.8491 40.0758 53.2007C39.7242 53.5524 39.2473 53.7499 38.75 53.7499C38.2527 53.7499 37.7758 53.5524 37.4242 53.2007C37.0725 52.8491 36.875 52.3722 36.875 51.8749V48.7499H40C40.21 48.7499 40.4175 48.7424 40.625 48.7299ZM36.875 48.7499H20C17.5136 48.7499 15.129 47.7622 13.3709 46.004C11.6127 44.2459 10.625 41.8613 10.625 39.3749V31.6699L24.91 39.5624C26.4745 40.4042 28.2234 40.8448 30 40.8448C31.7766 40.8448 33.5255 40.4042 35.09 39.5624L36.875 38.5774V48.7499ZM40.625 36.5049L49.375 31.6699V39.3749C49.3752 41.7533 48.4715 44.0428 46.8468 45.7798C45.2222 47.5168 42.9981 48.5714 40.625 48.7299V36.5049Z" fill="#D15C0D"/>
<path fill-rule="evenodd" clip-rule="evenodd" d="M36.875 35.7201L33.88 37.3751C32.6876 38.0175 31.3544 38.3538 30 38.3538C28.6456 38.3538 27.3124 38.0175 26.12 37.3751L5.335 25.8901C3.92 25.1076 3.125 23.7376 3.125 22.3051C3.125 20.8701 3.92 19.5001 5.335 18.7201L26.12 7.23258C27.3128 6.59143 28.6458 6.25586 30 6.25586C31.3542 6.25586 32.6872 6.59143 33.88 7.23258L54.665 18.7201C56.08 19.5001 56.875 20.8701 56.875 22.3051C56.875 23.7376 56.08 25.1076 54.665 25.8901L40.625 33.6476V31.8751C40.6252 31.6289 40.5767 31.3851 40.4823 31.1577C40.3879 30.9303 40.2495 30.7238 40.075 30.5501L31.325 21.8001C31.151 21.6261 30.9444 21.4881 30.7171 21.3939C30.4897 21.2997 30.2461 21.2512 30 21.2512C29.7539 21.2512 29.5103 21.2997 29.2829 21.3939C29.0556 21.4881 28.849 21.6261 28.675 21.8001C28.501 21.9741 28.363 22.1806 28.2688 22.408C28.1746 22.6353 28.1262 22.879 28.1262 23.1251C28.1262 23.3712 28.1746 23.6148 28.2688 23.8422C28.363 24.0695 28.501 24.2761 28.675 24.4501L36.875 32.6526V35.7201Z" fill="#D15C0D"/>
</svg>
