<svg width="60" height="60" viewBox="0 0 60 60" fill="none" xmlns="http://www.w3.org/2000/svg">
<rect width="60" height="60" rx="30" fill="white"/>
<path d="M33.0625 30C33.0625 31.6914 31.6914 33.0625 30 33.0625C28.3086 33.0625 26.9375 31.6914 26.9375 30C26.9375 28.3086 28.3086 26.9375 30 26.9375C31.6914 26.9375 33.0625 28.3086 33.0625 30Z" fill="#D15C0D"/>
<path d="M37.1621 24.5813C37.0148 24.1823 36.78 23.8213 36.4749 23.5249C36.1785 23.2197 35.8175 22.9849 35.4184 22.8376C35.0947 22.712 34.6084 22.5623 33.7126 22.5215C32.7436 22.4773 32.4531 22.4678 30 22.4678C27.5466 22.4678 27.2561 22.4771 26.2874 22.5213C25.3916 22.5623 24.905 22.7119 24.5816 22.8376C24.1824 22.9848 23.8214 23.2197 23.5251 23.5249C23.2199 23.8213 22.985 24.1823 22.8376 24.5813C22.7119 24.9051 22.5622 25.3916 22.5215 26.2874C22.4773 27.2561 22.4677 27.5466 22.4677 30C22.4677 32.4531 22.4773 32.7436 22.5215 33.7126C22.5622 34.6084 22.7119 35.0948 22.8376 35.4185C22.9849 35.8175 23.2198 36.1785 23.5249 36.4749C23.8212 36.7801 24.1822 37.0149 24.5813 37.1621C24.9051 37.2881 25.3916 37.4378 26.2874 37.4785C27.2561 37.5227 27.5464 37.532 29.9997 37.532C32.4534 37.532 32.7439 37.5227 33.7124 37.4785C34.6081 37.4378 35.0947 37.2881 35.4184 37.1621C35.8147 37.0093 36.1745 36.7752 36.4748 36.4749C36.7752 36.1746 37.0093 35.8147 37.1621 35.4185C37.2878 35.0947 37.4375 34.6085 37.4785 33.7126C37.5227 32.7436 37.532 32.4531 37.532 30C37.532 27.5466 37.5227 27.2561 37.4785 26.2874C37.4377 25.3916 37.2881 24.905 37.1621 24.5813ZM30 34.7176C27.3943 34.7176 25.282 32.6055 25.282 29.9998C25.282 27.3941 27.3943 25.282 30 25.282C32.6055 25.282 34.7177 27.3941 34.7177 29.9998C34.7177 32.6055 32.6055 34.7176 30 34.7176ZM34.9043 26.198C34.2954 26.198 33.8018 25.7043 33.8018 25.0955C33.8018 24.4867 34.2954 23.993 34.9043 23.993C35.5132 23.993 36.0068 24.4866 36.0068 25.0955C36.0066 25.7043 35.5132 26.198 34.9043 26.198Z" fill="#D15C0D"/>
<path d="M30 14C21.1648 14 14 21.1648 14 30C14 38.8352 21.1648 46 30 46C38.8352 46 46 38.8352 46 30C46 21.1648 38.8352 14 30 14ZM39.1321 33.7878C39.0877 34.7659 38.9321 35.4336 38.7051 36.0181C38.469 36.6284 38.1081 37.1827 37.6454 37.6454C37.1827 38.1081 36.6284 38.469 36.0181 38.7051C35.4338 38.9321 34.7659 39.0874 33.7881 39.1321C32.8084 39.1768 32.4954 39.1875 30.0002 39.1875C27.5049 39.1875 27.1921 39.1768 26.2121 39.1321C25.2344 39.0874 24.5664 38.9321 23.9821 38.7051C23.369 38.4744 22.8136 38.1127 22.3547 37.6453C21.8874 37.1864 21.5258 36.6311 21.2952 36.0181C21.0681 35.4338 20.9126 34.7659 20.8682 33.7881C20.823 32.8081 20.8125 32.4951 20.8125 30C20.8125 27.5049 20.823 27.1919 20.8679 26.2122C20.9123 25.2341 21.0676 24.5664 21.2947 23.9819C21.5254 23.3689 21.8872 22.8135 22.3547 22.3547C22.8135 21.8873 23.3689 21.5256 23.9819 21.2949C24.5664 21.0679 25.2341 20.9126 26.2122 20.8679C27.1919 20.8233 27.5049 20.8125 30 20.8125C32.4951 20.8125 32.8081 20.8232 33.7878 20.8681C34.7659 20.9126 35.4336 21.0679 36.0181 21.2947C36.6312 21.5254 37.1866 21.8872 37.6456 22.3547C38.1129 22.8136 38.4745 23.3689 38.7051 23.9819C38.9324 24.5664 39.0876 25.2341 39.1323 26.2122C39.177 27.1919 39.1875 27.5049 39.1875 30C39.1875 32.4951 39.177 32.8081 39.1321 33.7878Z" fill="#D15C0D"/>
</svg>
