<svg width="60" height="60" viewBox="0 0 60 60" fill="none" xmlns="http://www.w3.org/2000/svg">
<rect width="60" height="60" rx="30" fill="white"/>
<g clip-path="url(#clip0_2040_1338)">
<path d="M30 14C21.1648 14 14 21.1648 14 30C14 38.8352 21.1648 46 30 46C38.8352 46 46 38.8352 46 30C46 21.1648 38.8352 14 30 14ZM25.3506 38.1875H21.4539V26.4641H25.3506L25.3506 38.1875ZM23.4023 24.8632H23.3769C22.0693 24.8632 21.2236 23.9631 21.2236 22.8381C21.2236 21.6878 22.0952 20.8125 23.4283 20.8125C24.7613 20.8125 25.5816 21.6878 25.6069 22.8381C25.6069 23.9631 24.7612 24.8633 23.4023 24.8633V24.8632ZM39.4014 38.1875H35.5052V31.9158C35.5052 30.3396 34.941 29.2646 33.5311 29.2646C32.4546 29.2646 31.8136 29.9897 31.5318 30.6897C31.4288 30.9402 31.4036 31.2903 31.4036 31.6406V38.1875H27.5071C27.5071 38.1875 27.5582 27.5639 27.5071 26.4641H31.4036V28.124C31.9214 27.3252 32.848 26.189 34.9154 26.189C37.4791 26.189 39.4014 27.8645 39.4014 31.4653V38.1875Z" fill="#D15C0D"/>
</g>
<defs>
<clipPath id="clip0_2040_1338">
<rect width="32" height="32" fill="white" transform="translate(14 14)"/>
</clipPath>
</defs>
</svg>
