<svg width="16" height="22" viewBox="0 0 16 22" fill="none" xmlns="http://www.w3.org/2000/svg">
<path d="M8 0.875C5.91142 0.875 3.90838 1.70469 2.43153 3.18153C0.954685 4.65838 0.125 6.66142 0.125 8.75C0.125 15.125 8 21.125 8 21.125C8 21.125 15.875 15.125 15.875 8.75C15.875 6.66142 15.0453 4.65838 13.5685 3.18153C12.0916 1.70469 10.0886 0.875 8 0.875ZM8 12.5C7.25832 12.5 6.5333 12.2801 5.91661 11.868C5.29993 11.456 4.81928 10.8703 4.53545 10.1851C4.25162 9.49984 4.17736 8.74584 4.32205 8.01841C4.46675 7.29098 4.8239 6.6228 5.34835 6.09835C5.8728 5.5739 6.54098 5.21675 7.26841 5.07205C7.99584 4.92736 8.74984 5.00162 9.43506 5.28545C10.1203 5.56928 10.706 6.04993 11.118 6.66661C11.5301 7.2833 11.75 8.00832 11.75 8.75C11.75 9.74456 11.3549 10.6984 10.6517 11.4017C9.94839 12.1049 8.99456 12.5 8 12.5Z" fill="#D15C0D"/>
</svg>
