<svg width="60" height="60" viewBox="0 0 60 60" fill="none" xmlns="http://www.w3.org/2000/svg">
<rect width="60" height="60" rx="30" fill="white"/>
<g clip-path="url(#clip0_2040_1330)">
<path d="M30 46C38.8366 46 46 38.8366 46 30C46 21.1634 38.8366 14 30 14C21.1634 14 14 21.1634 14 30C14 38.8366 21.1634 46 30 46Z" fill="#D15C0D"/>
<path d="M40.3647 23.5728C39.5851 23.9133 38.7605 24.1395 37.9163 24.2444C38.8062 23.7167 39.4714 22.8807 39.7857 21.895C38.9528 22.3893 38.0414 22.7375 37.091 22.9244C36.5086 22.3016 35.7523 21.8684 34.9203 21.6812C34.0884 21.4941 33.2194 21.5616 32.4264 21.875C31.6334 22.1884 30.953 22.7332 30.4738 23.4385C29.9946 24.1438 29.7387 24.977 29.7394 25.8297C29.7364 26.1552 29.7696 26.48 29.8384 26.7981C28.1478 26.7151 26.4937 26.2763 24.9843 25.5105C23.4748 24.7447 22.1438 23.6691 21.0784 22.3539C20.5307 23.2895 20.361 24.3989 20.604 25.4554C20.847 26.512 21.4844 27.4358 22.3857 28.0381C21.7129 28.02 21.0544 27.8402 20.4657 27.5139V27.5602C20.4676 28.5409 20.8071 29.491 21.427 30.2509C22.047 31.0108 22.9096 31.5341 23.8699 31.7328C23.5065 31.8283 23.132 31.8751 22.7563 31.8718C22.4857 31.8768 22.2154 31.8528 21.9499 31.8002C22.2251 32.6436 22.7548 33.3811 23.4662 33.9111C24.1776 34.4412 25.0357 34.7378 25.9226 34.7602C24.4197 35.9349 22.5669 36.573 20.6594 36.5728C20.3195 36.5757 19.9798 36.556 19.6426 36.5139C21.5876 37.7679 23.8547 38.4305 26.1689 38.4213C33.9899 38.4213 38.2657 31.9434 38.2657 26.3286C38.2657 26.1413 38.2657 25.9602 38.251 25.7792C39.0837 25.1782 39.8 24.4305 40.3647 23.5728Z" fill="white"/>
</g>
<defs>
<clipPath id="clip0_2040_1330">
<rect width="32" height="32" fill="white" transform="translate(14 14)"/>
</clipPath>
</defs>
</svg>
