<svg width="118" height="40" viewBox="0 0 118 40" fill="none" xmlns="http://www.w3.org/2000/svg">
<rect x="0.666748" width="117.333" height="40" rx="4" fill="#0061FF" fill-opacity="0.11"/>
<g clip-path="url(#clip0_78_3557)">
<path d="M63.1825 10.5C63.2291 10.5 63.2756 10.5 63.3248 10.5C63.4389 11.9104 62.9006 12.9643 62.2463 13.7275C61.6043 14.4854 60.7252 15.2205 59.3033 15.109C59.2085 13.7187 59.7477 12.743 60.4011 11.9816C61.0071 11.272 62.1181 10.6405 63.1825 10.5Z" fill="black"/>
<path d="M67.4867 25.1805C67.4867 25.1946 67.4867 25.2069 67.4867 25.2201C67.0871 26.4303 66.5171 27.4675 65.8215 28.43C65.1866 29.3038 64.4085 30.4798 63.0191 30.4798C61.8186 30.4798 61.0211 29.7078 59.7907 29.6868C58.4892 29.6657 57.7734 30.3323 56.5834 30.5C56.4473 30.5 56.3112 30.5 56.1777 30.5C55.3038 30.3735 54.5986 29.6815 54.0848 29.0579C52.5699 27.2154 51.3992 24.8354 51.1814 21.7897C51.1814 21.4911 51.1814 21.1934 51.1814 20.8948C51.2736 18.715 52.3328 16.9427 53.7406 16.0838C54.4836 15.6271 55.5049 15.2381 56.6422 15.412C57.1297 15.4875 57.6276 15.6544 58.0641 15.8195C58.4778 15.9784 58.995 16.2603 59.4851 16.2454C59.8171 16.2357 60.1473 16.0627 60.4819 15.9407C61.462 15.5867 62.4228 15.181 63.6892 15.3716C65.2112 15.6017 66.2914 16.2779 66.9589 17.3212C65.6714 18.1406 64.6535 19.3754 64.8274 21.4841C64.9819 23.3995 66.0955 24.5201 67.4867 25.1805Z" fill="black"/>
</g>
<defs>
<clipPath id="clip0_78_3557">
<rect width="20" height="20" fill="white" transform="translate(49.3335 10.5)"/>
</clipPath>
</defs>
</svg>
