<svg width="21" height="21" viewBox="0 0 21 21" fill="none" xmlns="http://www.w3.org/2000/svg">
<g clip-path="url(#clip0_2023_1957)">
<path d="M20.6572 10.6871C20.6572 9.8677 20.5892 9.26977 20.4419 8.64969H10.866V12.348H16.4868C16.3735 13.2671 15.7616 14.6512 14.4017 15.5813L14.3826 15.7051L17.4103 17.9969L17.6201 18.0174C19.5466 16.2789 20.6572 13.7211 20.6572 10.6871Z" fill="#4285F4"/>
<path d="M10.866 20.4313C13.6197 20.4313 15.9315 19.5454 17.6201 18.0174L14.4017 15.5813C13.5404 16.1682 12.3845 16.5779 10.866 16.5779C8.16886 16.5779 5.87972 14.8395 5.0637 12.4366L4.94409 12.4466L1.79581 14.8273L1.75464 14.9391C3.43183 18.1945 6.8769 20.4313 10.866 20.4313Z" fill="#34A853"/>
<path d="M5.0637 12.4366C4.84839 11.8166 4.72378 11.1521 4.72378 10.4656C4.72378 9.77908 4.84839 9.11473 5.05237 8.49466L5.04667 8.3626L1.85894 5.94366L1.75464 5.99214C1.06339 7.34305 0.666748 8.86008 0.666748 10.4656C0.666748 12.0712 1.06339 13.5882 1.75464 14.9391L5.0637 12.4366Z" fill="#FBBC05"/>
<path d="M10.866 4.35336C12.7811 4.35336 14.073 5.16168 14.8096 5.83718L17.6881 3.09107C15.9203 1.4855 13.6197 0.5 10.866 0.5C6.8769 0.5 3.43183 2.73672 1.75464 5.99214L5.05237 8.49466C5.87972 6.09183 8.16886 4.35336 10.866 4.35336Z" fill="#EB4335"/>
</g>
<defs>
<clipPath id="clip0_2023_1957">
<rect width="20" height="20" fill="white" transform="translate(0.666748 0.5)"/>
</clipPath>
</defs>
</svg>
