<svg xmlns="http://www.w3.org/2000/svg" xmlns:xlink="http://www.w3.org/1999/xlink" viewBox="0,0,255.99538,255.99538" width="72px" height="72px"><g fill="#6a6a6a" fill-rule="nonzero" stroke="none" stroke-width="1" stroke-linecap="butt" stroke-linejoin="miter" stroke-miterlimit="10" stroke-dasharray="" stroke-dashoffset="0" font-family="none" font-weight="none" font-size="none" text-anchor="none" style="mix-blend-mode: normal"><g transform="scale(10.66667,10.66667)"><path d="M12.03906,2.5c-0.23569,-0.00722 -0.46861,0.05237 -0.67187,0.17188l-9,5.29492c-0.51018,0.27538 -0.76407,0.86539 -0.6133,1.4252c0.15077,0.55981 0.66664,0.9425 1.24612,0.92441v9.43359c0.00007,0.69033 0.55967,1.24993 1.25,1.25h15.5c0.69033,-0.00007 1.24993,-0.55967 1.25,-1.25v-9.43555c0.578,0.01628 1.09174,-0.36597 1.24223,-0.92427c0.15049,-0.5583 -0.10154,-1.14696 -0.60942,-1.42339l-9,-5.29492c-0.18041,-0.10609 -0.38457,-0.16519 -0.59375,-0.17187zM12,5.20117l6.5,3.82227v9.47656h-2.5v-6.25c-0.00007,-0.69033 -0.55967,-1.24993 -1.25,-1.25h-5.5c-0.69033,0.00007 -1.24993,0.55967 -1.25,1.25v6.25h-2.5v-9.47656zM10.5,13.5h3v5h-3z"></path></g></g></svg>